<?xml version="1.0" standalone="no"?>
<!DOCTYPE svg PUBLIC "-//W3C//DTD SVG 1.1//EN" "http://www.w3.org/Graphics/SVG/1.1/DTD/svg11.dtd" >
<svg>
<metadata>
Created by FontForge 20090914 at Thu Apr 25 11:57:48 2019
 By www-data
EeveSomepx
</metadata>
<defs>
<font id="RedeemGold" horiz-adv-x="512" >
  <font-face 
    font-family="RedeemGold"
    font-weight="500"
    font-stretch="normal"
    units-per-em="1024"
    panose-1="2 0 6 3 0 0 0 0 0 0"
    ascent="768"
    descent="-256"
    x-height="384"
    cap-height="448"
    bbox="0 -128 704 704"
    underline-thickness="51"
    underline-position="-103"
    unicode-range="U+0020-U+3000"
  />
<missing-glyph horiz-adv-x="374" 
d="M34 0v682h272v-682h-272zM68 34h204v614h-204v-614z" />
    <glyph glyph-name=".notdef" horiz-adv-x="374" 
d="M34 0v682h272v-682h-272zM68 34h204v614h-204v-614z" />
    <glyph glyph-name="space" unicode=" " horiz-adv-x="320" 
 />
    <glyph glyph-name="exclam" unicode="!" horiz-adv-x="192" 
d="M64 64h64v-64h-64h-64v64h64zM64 128h-64v64v64v64v64v64h64v64h64v-64v-64v-64v-64v-64v-64h-64z" />
    <glyph glyph-name="quotedbl" unicode="&#x22;" horiz-adv-x="320" 
d="M128 256v64v64h-64v-64h-64v64v64v64h64h64v-64h64h64v-64v-64h-64v-64h-64z" />
    <glyph glyph-name="numbersign" unicode="#" horiz-adv-x="576" 
d="M384 64h-64v64h-64h-64v-64h-64h-64v64h-64v64h64v64h-64v64h64v64h64h64v-64h64h64v64h64h64v-64h64v-64h-64v-64h64v-64h-64v-64h-64zM256 192h64v64h-64h-64v-64h64z" />
    <glyph glyph-name="dollar" unicode="$" horiz-adv-x="448" 
d="M128 -64v64h-64h-64v64v64h64v-64h64v64v64h-64v64h-64v64v64h64v64h64h64v64h64v-64h64v-64h-64v-64v-64h64v-64h64v-64v-64h-64v-64h-64h-64v-64h-64zM256 64v64v64h-64v-64v-64h64zM192 256v64v64h-64v-64v-64h64z" />
    <glyph glyph-name="percent" unicode="%" horiz-adv-x="320" 
d="M192 0v64h64v-64h-64zM0 320v64h64v-64h-64zM64 0h-64v64v64h64v64v64h64v64v64h64h64v-64v-64h-64v-64v-64h-64v-64v-64h-64z" />
    <glyph glyph-name="ampersand" unicode="&#x26;" 
d="M256 320v64h64v-64h-64zM384 0h-64v64h-64v-64h-64h-64h-64v64h-64v64v64h64v64h-64v64v64h64v64h64h64h64v-64h-64h-64v-64v-64h64v-64h-64v-64v-64h64h64v64h-64v64h64h64h64v-64h64v-64v-64h-64zM384 192v64h64v-64h-64z" />
    <glyph glyph-name="quotesingle" unicode="'" horiz-adv-x="256" 
d="M64 256h-64v64h64v64h64h64v-64h-64v-64h-64z" />
    <glyph glyph-name="parenleft" unicode="(" horiz-adv-x="320" 
d="M192 0h64v-64h-64h-64h-64v64h-64v64v64v64v64v64v64v64h64v64h64h64h64v-64h-64h-64v-64v-64v-64v-64v-64v-64v-64h64z" />
    <glyph glyph-name="parenright" unicode=")" horiz-adv-x="320" 
d="M128 -64h-64h-64v64h64h64v64v64v64v64v64v64v64h-64h-64v64h64h64h64v-64h64v-64v-64v-64v-64v-64v-64v-64h-64v-64h-64z" />
    <glyph glyph-name="asterisk" unicode="*" horiz-adv-x="320" 
d="M0 64v64h64v-64h-64zM192 64h-64v64h-64v64h-64v64h64h64v-64h64v-64h64v-64h-64zM192 192v64h64v-64h-64z" />
    <glyph glyph-name="plus" unicode="+" horiz-adv-x="320" 
d="M128 64h-64v64h-64v64h64v64h64h64v-64h64v-64h-64v-64h-64z" />
    <glyph glyph-name="comma" unicode="," horiz-adv-x="256" 
d="M64 -128h-64v64h64v64v64h64h64v-64v-64h-64v-64h-64z" />
    <glyph glyph-name="hyphen" unicode="-" horiz-adv-x="320" 
d="M192 192h64v-64h-64h-64h-64h-64v64h64h64h64z" />
    <glyph glyph-name="period" unicode="." horiz-adv-x="192" 
d="M64 64h64v-64h-64h-64v64h64z" />
    <glyph glyph-name="slash" unicode="/" horiz-adv-x="256" 
d="M64 0h-64v64v64v64h64v64v64v64v64h64h64v-64v-64v-64h-64v-64v-64v-64v-64h-64z" />
    <glyph glyph-name="zero" unicode="0" horiz-adv-x="448" 
d="M256 0h-64h-64h-64v64h-64v64v64v64v64v64h64v64h64h64h64h64v-64h64v-64v-64v-64v-64v-64h-64v-64h-64zM192 64h64v64v64v64v64v64h-64h-64v-64v-64v-64v-64v-64h64z" />
    <glyph glyph-name="one" unicode="1" horiz-adv-x="448" 
d="M320 64h64v-64h-64h-64h-64h-64h-64h-64v64h64h64v64v64v64v64h-64h-64v64h64h64v64h64h64v-64v-64v-64v-64v-64v-64h64z" />
    <glyph glyph-name="two" unicode="2" horiz-adv-x="448" 
d="M320 64h64v-64h-64h-64h-64h-64h-64h-64v64v64v64h64v64h64h64h64v64v64h-64h-64h-64h-64v64h64h64h64h64h64v-64h64v-64v-64h-64v-64h-64h-64h-64v-64v-64h64h64h64z" />
    <glyph glyph-name="three" unicode="3" horiz-adv-x="448" 
d="M256 0h-64h-64h-64h-64v64h64h64h64h64v64v64v64h-64h-64h-64v64h64h64h64v64h-64h-64h-64h-64v64h64h64h64h64h64v-64h64v-64h-64v-64h64v-64v-64v-64h-64v-64h-64z" />
    <glyph glyph-name="four" unicode="4" horiz-adv-x="448" 
d="M320 0h-64v64v64h-64h-64h-64v64h-64v64v64v64v64h64h64v-64v-64v-64v-64h64h64v64v64v64v64h64h64v-64v-64v-64v-64v-64v-64v-64h-64z" />
    <glyph glyph-name="five" unicode="5" horiz-adv-x="448" 
d="M256 0h-64h-64h-64h-64v64h64h64h64h64v64v64h-64h-64h-64v64h-64v64v64v64h64h64h64h64h64v-64h-64h-64h-64v-64v-64h64h64h64v-64h64v-64v-64h-64v-64h-64z" />
    <glyph glyph-name="six" unicode="6" horiz-adv-x="448" 
d="M256 0h-64h-64h-64v64h-64v64v64v64v64v64h64v64h64h64h64h64v-64h-64h-64h-64v-64h64h64h64v-64h64v-64v-64v-64h-64v-64h-64zM192 64h64v64v64v64h-64h-64v-64v-64v-64h64z" />
    <glyph glyph-name="seven" unicode="7" horiz-adv-x="448" 
d="M192 0h-64v64v64h64v64v64h64v64v64h-64h-64h-64h-64v64h64h64h64h64h64h64v-64v-64v-64h-64v-64v-64h-64v-64v-64h-64z" />
    <glyph glyph-name="eight" unicode="8" horiz-adv-x="448" 
d="M256 0h-64h-64h-64v64h-64v64v64h64v64h-64v64v64h64v64h64h64h64h64v-64h64v-64v-64h-64v-64h64v-64v-64h-64v-64h-64zM192 64h64v64v64h-64h-64v-64v-64h64zM192 256h64v64v64h-64h-64v-64v-64h64z" />
    <glyph glyph-name="nine" unicode="9" horiz-adv-x="448" 
d="M256 0h-64h-64h-64v64h64h64h64v64h-64h-64h-64v64h-64v64v64v64h64v64h64h64h64h64v-64h64v-64v-64v-64v-64v-64h-64v-64h-64zM192 192h64v64v64v64h-64h-64v-64v-64v-64h64z" />
    <glyph glyph-name="colon" unicode=":" horiz-adv-x="192" 
d="M64 192h64v-64h-64h-64v64h64zM64 320h64v-64h-64h-64v64h64z" />
    <glyph glyph-name="semicolon" unicode=";" horiz-adv-x="256" 
d="M64 -128h-64v64h64v64v64h64h64v-64v-64h-64v-64h-64zM128 192h64v-64h-64h-64v64h64z" />
    <glyph glyph-name="less" unicode="&#x3c;" horiz-adv-x="256" 
d="M128 64h-64v64h-64v64h64v64h64h64v-64h-64v-64h64v-64h-64z" />
    <glyph glyph-name="equal" unicode="=" horiz-adv-x="320" 
d="M192 128h64v-64h-64h-64h-64h-64v64h64h64h64zM192 256h64v-64h-64h-64h-64h-64v64h64h64h64z" />
    <glyph glyph-name="greater" unicode="&#x3e;" horiz-adv-x="256" 
d="M64 64h-64v64h64v64h-64v64h64h64v-64h64v-64h-64v-64h-64z" />
    <glyph glyph-name="question" unicode="?" horiz-adv-x="384" 
d="M0 384v64v64h64h64h64h64v-64h64v-64v-64h-64v-64h-64v-64v-64h-64h-64v64v64h64v64h64v64v64h-64h-64v-64h-64zM128 64h64v-64h-64h-64v64h64z" />
    <glyph glyph-name="at" unicode="@" horiz-adv-x="768" 
d="M128 -64h-64v64h-64v64v64v64v64v64v64h64v64h64v64h64h64h64h64h64h64h64h64v-64h64v-64v-64v-64v-64v-64h-64v-64h-64h-64v-64h-64h-64h-64h-64v64h-64v64v64h64v64h64h64h64v64h-64h-64h-64v64h64h64h64h64v-64h64v-64v-64v-64h64v64v64v64v64h-64v64h-64h-64h-64h-64
h-64h-64v-64h-64v-64v-64v-64v-64v-64v-64h64v-64h-64zM384 64h64v64v64h-64h-64v-64v-64h64z" />
    <glyph glyph-name="A" unicode="A" 
d="M384 0h-64v64v64v64h-64h-64v64h64h64v64v64h-64h-64h-64v-64v-64v-64v-64v-64v-64h-64h-64v64v64v64v64v64v64h64v64h64h64h64h64h64v-64h64v-64v-64v-64v-64v-64v-64h-64z" />
    <glyph glyph-name="B" unicode="B" horiz-adv-x="576" 
d="M384 0h-64h-64h-64h-64h-64h-64v64h64v64v64v64v64v64h-64v64h64h64h64h64h64h64h64v-64h64v-64v-64h-64v-64h64v-64v-64h-64v-64h-64zM320 64h64v64v64h-64h-64v64h64h64v64v64h-64h-64h-64v-64v-64v-64v-64v-64h64h64z" />
    <glyph glyph-name="C" unicode="C" horiz-adv-x="448" 
d="M320 64h64v-64h-64h-64h-64h-64h-64v64h-64v64v64v64v64v64h64v64h64h64h64h64h64v-64h-64h-64h-64h-64v-64v-64v-64v-64v-64h64h64h64z" />
    <glyph glyph-name="D" unicode="D" horiz-adv-x="576" 
d="M384 0h-64h-64h-64h-64h-64h-64v64h64v64v64v64v64v64h-64v64h64h64h64h64h64h64v-64h64v-64h64v-64v-64v-64v-64h-64v-64h-64zM320 64h64v64v64v64v64h-64v64h-64h-64v-64v-64v-64v-64v-64h64h64z" />
    <glyph glyph-name="E" unicode="E" 
d="M384 64h64v-64h-64h-64h-64h-64h-64h-64h-64v64h64v64v64v64v64v64h-64v64h64h64h64h64h64h64h64v-64h-64h-64h-64h-64v-64v-64h64h64h64v-64h-64h-64h-64v-64v-64h64h64h64z" />
    <glyph glyph-name="F" unicode="F" 
d="M192 0h-64h-64h-64v64h64v64v64v64v64v64h-64v64h64h64h64h64h64h64h64v-64h-64h-64h-64h-64v-64v-64h64h64h64v-64h-64h-64h-64v-64v-64h64v-64h-64z" />
    <glyph glyph-name="G" unicode="G" 
d="M320 0h-64h-64h-64h-64v64h-64v64v64v64v64v64h64v64h64h64h64h64h64v-64h-64h-64h-64h-64v-64v-64v-64v-64v-64h64h64h64v64v64h-64h-64v64h64h64h64h64v-64v-64v-64h-64v-64h-64z" />
    <glyph glyph-name="H" unicode="H" 
d="M384 0h-64v64v64v64h-64h-64h-64v-64v-64v-64h-64h-64v64v64v64v64v64v64v64h64h64v-64v-64v-64h64h64h64v64v64v64h64h64v-64v-64v-64v-64v-64v-64v-64h-64z" />
    <glyph glyph-name="I" unicode="I" horiz-adv-x="320" 
d="M192 0h-64h-64h-64v64h64v64v64v64v64v64h-64v64h64h64h64h64v-64h-64v-64v-64v-64v-64v-64h64v-64h-64z" />
    <glyph glyph-name="J" unicode="J" horiz-adv-x="320" 
d="M128 -64h-64h-64v64h64h64v64v64v64v64v64v64h-64h-64v64h64h64h64h64v-64v-64v-64v-64v-64v-64v-64h-64v-64h-64z" />
    <glyph glyph-name="K" unicode="K" horiz-adv-x="576" 
d="M448 0h-64v64v64h-64v64h64h64v-64h64v-64v-64h-64zM128 0h-64h-64v64h64v64v64v64v64v64h-64v64h64h64h64v-64v-64v-64h64v64h64v64v64h64h64v-64v-64h-64v-64h-64v-64h-64h-64v-64v-64v-64h-64z" />
    <glyph glyph-name="L" unicode="L" horiz-adv-x="448" 
d="M320 0h-64h-64h-64h-64h-64v64h64v64v64v64v64v64h-64v64h64h64h64h64v-64h-64v-64v-64v-64v-64v-64h64h64v64h64v-64v-64h-64z" />
    <glyph glyph-name="M" unicode="M" 
d="M192 192v64v64h64v64h64v64h64h64v-64v-64v-64v-64v-64v-64v-64h-64h-64v64v64v64v64h-64v-64h-64zM64 0h-64v64v64v64v64v64v64v64h64h64h64v-64v-64h-64v-64v-64v-64v-64v-64h-64z" />
    <glyph glyph-name="N" unicode="N" horiz-adv-x="448" 
d="M320 0h-64v64v64v64h-64v64v64h64v64v64h64h64v-64v-64v-64v-64v-64v-64v-64h-64zM64 0h-64v64v64v64v64v64v64v64h64h64h64v-64v-64h-64v-64v-64v-64v-64v-64h-64z" />
    <glyph glyph-name="O" unicode="O" 
d="M320 0h-64h-64h-64h-64v64h-64v64v64v64v64v64h64v64h64h64h64h64h64v-64h64v-64v-64v-64v-64v-64h-64v-64h-64zM256 64h64v64v64v64v64v64h-64h-64h-64v-64v-64v-64v-64v-64h64h64z" />
    <glyph glyph-name="P" unicode="P" horiz-adv-x="576" 
d="M256 128v64v64h64h64v64v64h-64h-64h-64v-64v-64v-64v-64v-64h64v-64h-64h-64h-64h-64v64h64v64v64v64v64v64h-64v64h64h64h64h64h64h64h64v-64h64v-64v-64h-64v-64h-64h-64v-64h-64z" />
    <glyph glyph-name="Q" unicode="Q" 
d="M384 -64h-64h-64v64v64v64h64v64v64v64v64h-64h-64h-64v-64v-64v-64v-64v-64h64v-64h-64h-64v64h-64v64v64v64v64v64h64v64h64h64h64h64h64v-64h64v-64v-64v-64v-64v-64h-64v-64h64v-64h-64zM256 128h-64v64h64v-64z" />
    <glyph glyph-name="R" unicode="R" horiz-adv-x="576" 
d="M448 0h-64v64v64h-64v64h-64v64h64v64v64h-64h-64v-64v-64v-64v-64v-64v-64h-64h-64h-64v64h64v64v64v64v64v64h-64v64h64h64h64h64h64h64v-64h64v-64v-64h-64v-64h64v-64h64v-64v-64h-64z" />
    <glyph glyph-name="S" unicode="S" horiz-adv-x="448" 
d="M256 0h-64h-64h-64h-64v64v64h64v-64h64h64h64v64v64h-64h-64h-64v64h-64v64v64h64v64h64h64h64h64v-64h-64h-64h-64v-64v-64h64h64h64v-64h64v-64v-64h-64v-64h-64z" />
    <glyph glyph-name="T" unicode="T" horiz-adv-x="448" 
d="M192 0h-64v64v64v64v64v64v64h-64h-64v64h64h64h64h64h64h64v-64h-64h-64v-64v-64v-64v-64v-64v-64h-64z" />
    <glyph glyph-name="U" unicode="U" 
d="M320 0h-64h-64h-64h-64v64h-64v64v64v64v64v64v64h64h64v-64v-64v-64v-64v-64v-64h64h64h64v64v64v64v64v64v64h64h64v-64v-64v-64v-64v-64v-64h-64v-64h-64z" />
    <glyph glyph-name="V" unicode="V" 
d="M256 0h-64h-64v64v64h-64v64v64h-64v64v64v64h64h64v-64v-64v-64h64v-64v-64h64v64v64h64v64v64v64h64h64v-64v-64v-64h-64v-64v-64h-64v-64v-64h-64z" />
    <glyph glyph-name="W" unicode="W" 
d="M320 0h-64v64h-64v-64h-64h-64v64v64v64h-64v64v64v64v64h64h64v-64v-64v-64v-64h64v64v64h64v-64v-64h64v64v64v64v64h64h64v-64v-64v-64v-64h-64v-64v-64v-64h-64z" />
    <glyph glyph-name="X" unicode="X" 
d="M384 0h-64v64v64h-64v64h-64v-64h-64v-64v-64h-64h-64v64v64h64v64h64v64h-64v64h-64v64v64h64h64v-64v-64h64v-64h64v64h64v64v64h64h64v-64v-64h-64v-64h-64v-64h64v-64h64v-64v-64h-64z" />
    <glyph glyph-name="Y" unicode="Y" horiz-adv-x="448" 
d="M128 -64h-64h-64v64h64h64v64h64v64h64v64v64v64v64h-64v64h64h64h64v-64v-64v-64v-64v-64h-64v-64h-64v-64h-64v-64h-64zM192 128h-64h-64v64h-64v64v64v64v64h64h64v-64v-64v-64v-64h64v-64z" />
    <glyph glyph-name="Z" unicode="Z" horiz-adv-x="448" 
d="M0 320v64v64h64h64h64h64h64h64v-64v-64h-64v-64h-64v-64h-64v-64v-64h64h64h64v-64h-64h-64h-64h-64h-64h-64v64v64h64v64h64v64h64v64h64v64h-64h-64h-64v-64h-64z" />
    <glyph glyph-name="bracketleft" unicode="[" horiz-adv-x="320" 
d="M192 0h64v-64h-64h-64h-64h-64v64v64v64v64v64v64v64v64v64h64h64h64h64v-64h-64h-64v-64v-64v-64v-64v-64v-64v-64h64z" />
    <glyph glyph-name="backslash" unicode="\" horiz-adv-x="256" 
d="M128 0h-64v64v64v64v64h-64v64v64v64h64h64v-64v-64v-64v-64h64v-64v-64v-64h-64z" />
    <glyph glyph-name="bracketright" unicode="]" horiz-adv-x="320" 
d="M192 -64h-64h-64h-64v64h64h64v64v64v64v64v64v64v64h-64h-64v64h64h64h64h64v-64v-64v-64v-64v-64v-64v-64v-64v-64h-64z" />
    <glyph glyph-name="asciicircum" unicode="^" horiz-adv-x="384" 
d="M256 320v64h64v-64h-64zM0 320v64h64v-64h-64zM256 384h-64h-64h-64v64h64v64h64v-64h64v-64z" />
    <glyph glyph-name="underscore" unicode="_" horiz-adv-x="320" 
d="M192 0h64v-64h-64h-64h-64h-64v64h64h64h64z" />
    <glyph glyph-name="grave" unicode="`" horiz-adv-x="256" 
d="M128 320h-64v64h-64v64h64h64v-64h64v-64h-64z" />
    <glyph glyph-name="a" unicode="a" 
d="M384 0h-64h-64h-64h-64h-64v64h-64v64v64h64v64h64h64h64v64h-64h-64h-64v64h64h64h64h64v-64h64v-64v-64v-64v-64h64v-64h-64zM192 64h64v64v64h-64h-64v-64v-64h64z" />
    <glyph glyph-name="b" unicode="b" 
d="M320 0h-64h-64h-64h-64h-64v64h64v64v64v64v64v64h-64v64h64h64h64v-64v-64v-64v-64v-64v-64h64h64v64v64v64v64h-64v64h64h64v-64h64v-64v-64v-64v-64h-64v-64h-64z" />
    <glyph glyph-name="c" unicode="c" horiz-adv-x="384" 
d="M256 64h64v-64h-64h-64h-64h-64v64h-64v64v64v64v64h64v64h64h64h64h64v-64h-64h-64h-64v-64v-64v-64v-64h64h64z" />
    <glyph glyph-name="d" unicode="d" 
d="M384 0h-64v64h-64v64v64v64h-64v64h64v64v64h64h64h64v-64h-64v-64v-64v-64v-64v-64h64v-64h-64zM128 0h-64v64h-64v64v64v64v64h64v64h64h64v-64h-64v-64v-64v-64v-64h64v-64h-64z" />
    <glyph glyph-name="e" unicode="e" horiz-adv-x="448" 
d="M256 64h64v-64h-64h-64h-64h-64v64h-64v64v64v64v64h64v64h64h64h64h64v-64h64v-64v-64h-64v-64h-64h-64v64h64v64v64h-64h-64v-64v-64v-64v-64h64h64z" />
    <glyph glyph-name="f" unicode="f" horiz-adv-x="384" 
d="M64 -64h-64v64h64v64v64v64v64h-64v64h64v64h64v64h64h64h64v-64h-64h-64v-64v-64h64h64v-64h-64h-64v-64v-64v-64h-64v-64h-64z" />
    <glyph glyph-name="g" unicode="g" horiz-adv-x="448" 
d="M256 -128h-64h-64h-64v64h64h64h64v64v64v64v64v64h-64v64h-64v-64v-64v-64v-64h64v-64h-64h-64v64h-64v64v64v64v64h64v64h64h64h64h64h64v-64h-64v-64h64v-64v-64v-64v-64v-64h-64v-64h-64z" />
    <glyph glyph-name="h" unicode="h" 
d="M384 0h-64v64v64v64v64v64h-64v-64h-64v-64v-64v-64h-64v-64h-64h-64v64h64v64v64v64v64v64h-64v64h64h64h64v-64v-64h64v64h64h64v-64h64v-64v-64v-64v-64v-64h-64z" />
    <glyph glyph-name="i" unicode="i" horiz-adv-x="320" 
d="M192 0h-64h-64h-64v64h64v64v64v64v64h-64v64h64h64h64v-64v-64v-64v-64v-64h64v-64h-64zM128 512h64v-64h-64h-64v64h64z" />
    <glyph glyph-name="j" unicode="j" horiz-adv-x="320" 
d="M128 -64h-64h-64v64h64h64v64v64v64v64v64v64h64h64v-64v-64v-64v-64v-64v-64h-64v-64h-64zM192 512h64v-64h-64h-64v64h64z" />
    <glyph glyph-name="k" unicode="k" 
d="M384 0h-64v64v64h-64v64h-64v-64v-64h-64v-64h-64h-64v64h64v64v64v64v64v64h-64v64h64h64h64v-64v-64v-64h64v64v64h64h64v-64v-64h-64v-64h64v-64h64v-64v-64h-64z" />
    <glyph glyph-name="l" unicode="l" horiz-adv-x="256" 
d="M128 0h-64v64h-64v64v64v64v64v64v64h64h64v-64v-64v-64v-64v-64v-64h64v-64h-64z" />
    <glyph glyph-name="m" unicode="m" horiz-adv-x="640" 
d="M512 0h-64v64v64v64v64v64h-64v-64v-64v-64v-64v-64h-64h-64v64v64v64v64v64h-64v-64v-64v-64v-64h-64v-64h-64h-64v64h64v64v64v64v64h-64v64h64h64v-64h64v64h64h64v-64h64v64h64h64v-64h64v-64v-64v-64v-64v-64h-64z" />
    <glyph glyph-name="n" unicode="n" 
d="M384 0h-64v64v64v64v64v64h-64v-64h-64v-64v-64v-64h-64v-64h-64h-64v64h64v64v64v64v64h-64v64h64h64h64v-64h64v64h64h64v-64h64v-64v-64v-64v-64v-64h-64z" />
    <glyph glyph-name="o" unicode="o" horiz-adv-x="448" 
d="M256 0h-64h-64h-64v64h-64v64v64v64v64h64v64h64h64h64h64v-64h64v-64v-64v-64v-64h-64v-64h-64zM192 64h64v64v64v64v64h-64h-64v-64v-64v-64v-64h64z" />
    <glyph glyph-name="p" unicode="p" 
d="M128 -128h-64v64v64v64v64v64v64v64h-64v64h64h64h64v-64h64v64h64h64v-64h64v-64v-64v-64v-64h-64v-64h-64h-64h-64v-64v-64h-64zM256 64h64v64v64v64v64h-64v-64h-64v-64v-64v-64h64z" />
    <glyph glyph-name="q" unicode="q" horiz-adv-x="448" 
d="M320 -128h-64v64v64v64h-64v64h64v64v64v64h-64h-64v-64v-64v-64v-64h64v-64h-64h-64v64h-64v64v64v64v64h64v64h64h64h64h64v-64h64v-64v-64v-64v-64v-64v-64v-64h-64z" />
    <glyph glyph-name="r" unicode="r" horiz-adv-x="448" 
d="M192 0h-64h-64h-64v64h64v64v64v64v64h-64v64h64h64h64v-64h64v64h64v-64h64v-64v-64h-64h-64v64h-64v-64v-64v-64h64v-64h-64z" />
    <glyph glyph-name="s" unicode="s" horiz-adv-x="384" 
d="M192 0h-64h-64h-64v64v64h64v-64h64h64v64v64h-64h-64v64h-64v64h64v64h64h64h64v-64h-64h-64v-64h64h64v-64h64v-64v-64h-64v-64h-64z" />
    <glyph glyph-name="t" unicode="t" horiz-adv-x="384" 
d="M256 64h64v-64h-64h-64h-64v64h-64v64v64v64v64h-64v64h64v64h64h64v-64h64h64v-64h-64h-64v-64v-64v-64v-64h64z" />
    <glyph glyph-name="u" unicode="u" horiz-adv-x="448" 
d="M256 0h-64h-64h-64v64h-64v64v64v64v64v64h64h64v-64v-64v-64v-64v-64h64h64v64v64v64v64v64h64h64v-64v-64v-64v-64v-64h-64v-64h-64z" />
    <glyph glyph-name="v" unicode="v" horiz-adv-x="448" 
d="M192 0h-64v64h-64v64v64h-64v64v64v64h64h64v-64v-64v-64v-64h64v64h64v64v64v64h64h64v-64v-64v-64h-64v-64v-64h-64v-64h-64z" />
    <glyph glyph-name="w" unicode="w" 
d="M320 0h-64v64h-64v-64h-64h-64v64v64h-64v64v64v64v64h64h64v-64v-64v-64v-64h64v64v64h64v-64v-64h64v64v64v64v64h64h64v-64v-64v-64v-64h-64v-64v-64h-64z" />
    <glyph glyph-name="x" unicode="x" 
d="M384 0h-64v64v64h-64v64h-64v-64h-64v-64v-64h-64h-64v64v64h64v64h64v64h-64v64v64h64h64v-64v-64h64v64v64h64h64v-64v-64h-64v-64h64v-64h64v-64v-64h-64z" />
    <glyph glyph-name="y" unicode="y" horiz-adv-x="448" 
d="M192 -64h-64h-64v64h64h64v64h64v64v64v64v64h-64v64h64h64h64v-64v-64v-64v-64v-64h-64v-64h-64v-64h-64zM192 64h-64h-64v64h-64v64v64v64v64h64h64v-64v-64v-64v-64h64v-64z" />
    <glyph glyph-name="z" unicode="z" horiz-adv-x="384" 
d="M0 256v64v64h64h64h64h64h64v-64v-64h-64v-64h-64v-64h-64v-64h64h64h64v-64h-64h-64h-64h-64h-64v64v64h64v64h64v64h64v64h-64h-64v-64h-64z" />
    <glyph glyph-name="braceleft" unicode="{" horiz-adv-x="320" 
d="M192 0h64v-64h-64h-64h-64v64h-64v64v64h64v64h-64v64h64v64h-64v64v64h64v64h64h64h64v-64h-64h-64v-64v-64h64v-64h-64v-64h64v-64v-64h-64v-64h64z" />
    <glyph glyph-name="bar" unicode="|" horiz-adv-x="192" 
d="M64 0h-64v64v64v64v64v64v64v64h64h64v-64v-64v-64v-64v-64v-64v-64h-64z" />
    <glyph glyph-name="braceright" unicode="}" horiz-adv-x="320" 
d="M128 -64h-64h-64v64h64h64v64h-64v64v64h64v64h-64v64h64v64v64h-64h-64v64h64h64h64v-64h64v-64v-64h-64v-64h64v-64h-64v-64h64v-64v-64h-64v-64h-64z" />
    <glyph glyph-name="asciitilde" unicode="~" horiz-adv-x="384" 
d="M0 128v64h64v-64h-64zM192 64h-64v64v64h-64v64h64h64v-64h64v64h64v-64v-64h-64v-64h-64z" />
    <glyph glyph-name="uni00A0" unicode="&#xa0;" horiz-adv-x="320" 
 />
    <glyph glyph-name="exclamdown" unicode="&#xa1;" horiz-adv-x="192" 
d="M0 -64v64v64v64v64v64v64h64h64v-64v-64v-64v-64v-64h-64v-64h-64zM64 448h64v-64h-64h-64v64h64z" />
    <glyph glyph-name="cent" unicode="&#xa2;" horiz-adv-x="384" 
d="M192 -64v64h-64h-64v64h-64v64v64v64h64v64h64h64v64h64v-64h64v-64h-64v-64v-64v-64h64v-64h-64v-64h-64zM192 64v64v64v64h-64v-64v-64v-64h64z" />
    <glyph glyph-name="sterling" unicode="&#xa3;" horiz-adv-x="448" 
d="M320 64h64v-64h-64h-64h-64h-64h-64h-64v64h64v64v64h-64v64h64v64v64h64v64h64h64h64v-64h-64h-64v-64v-64h64h64v-64h-64h-64v-64v-64h64h64z" />
    <glyph glyph-name="copyright" unicode="&#xa9;" horiz-adv-x="640" 
d="M448 0h-64h-64h-64h-64h-64h-64v64h-64v64v64v64v64v64v64h64v64h64h64h64h64h64h64h64v-64h64v-64v-64v-64v-64v-64v-64h-64v-64h-64zM384 64h64v64v64v64v64v64v64h-64h-64h-64h-64h-64v-64v-64h64v64h64h64h64v-64h-64h-64v-64v-64h64h64v-64h-64h-64h-64v64h-64v-64
v-64h64h64h64h64z" />
    <glyph glyph-name="registered" unicode="&#xae;" horiz-adv-x="640" 
d="M320 128v64h64v-64h-64zM448 0h-64h-64h-64h-64h-64h-64v64h-64v64v64v64v64v64v64h64v64h64h64h64h64h64h64h64v-64h64v-64v-64v-64v-64v-64v-64h-64v-64h-64zM384 64h64v64v64v64v64v64v64h-64h-64h-64h-64h-64v-64v-64h64v64h64h64h64v-64v-64h-64v64h-64v-64h64v-64
h-64v-64h-64h-64v-64h64h64h64h64z" />
    <glyph glyph-name="degree" unicode="&#xb0;" horiz-adv-x="384" 
d="M192 256h-64h-64v64h-64v64v64h64v64h64h64h64v-64h64v-64v-64h-64v-64h-64zM192 320v64v64h-64v-64v-64h64z" />
    <glyph glyph-name="questiondown" unicode="&#xbf;" horiz-adv-x="384" 
d="M256 -64h-64h-64h-64v64h-64v64v64h64v64h64v64v64h64h64v-64v-64h-64v-64h-64v-64v-64h64h64v64h64v-64v-64h-64zM192 448h64v-64h-64h-64v64h64z" />
    <glyph glyph-name="Agrave" unicode="&#xc0;" 
d="M384 0h-64v64v64v64h-64h-64v64h64h64v64v64h-64h-64h-64v-64v-64v-64v-64v-64v-64h-64h-64v64v64v64v64v64v64h64v64h64h64h64h64h64v-64h64v-64v-64v-64v-64v-64v-64h-64zM256 512h-64v64h-64v64h64h64v-64h64v-64h-64z" />
    <glyph glyph-name="Aacute" unicode="&#xc1;" 
d="M384 0h-64v64v64v64h-64h-64v64h64h64v64v64h-64h-64h-64v-64v-64v-64v-64v-64v-64h-64h-64v64v64v64v64v64v64h64v64h64h64h64h64h64v-64h64v-64v-64v-64v-64v-64v-64h-64zM192 512h-64v64h64v64h64h64v-64h-64v-64h-64z" />
    <glyph glyph-name="Acircumflex" unicode="&#xc2;" 
d="M256 512v64h64v-64h-64zM128 512v64h64v-64h-64zM384 0h-64v64v64v64h-64h-64v64h64h64v64v64h-64h-64h-64v-64v-64v-64v-64v-64v-64h-64h-64v64v64v64v64v64v64h64v64h64h64h64h64h64v-64h64v-64v-64v-64v-64v-64v-64h-64zM256 576h-64v64h64v-64z" />
    <glyph glyph-name="Atilde" unicode="&#xc3;" 
d="M64 512v64h64v-64h-64zM384 0h-64v64v64v64h-64h-64v64h64h64v64v64h-64h-64h-64v-64v-64v-64v-64v-64v-64h-64h-64v64v64v64v64v64v64h64v64h64h64h64h64h64v-64h64v-64v-64v-64v-64v-64v-64h-64zM256 512h-64v64h-64v64h64h64v-64h64v-64h-64zM320 576v64h64v-64h-64z
" />
    <glyph glyph-name="Adieresis" unicode="&#xc4;" 
d="M256 512v64h64v-64h-64zM128 512v64h64v-64h-64zM384 0h-64v64v64v64h-64h-64v64h64h64v64v64h-64h-64h-64v-64v-64v-64v-64v-64v-64h-64h-64v64v64v64v64v64v64h64v64h64h64h64h64h64v-64h64v-64v-64v-64v-64v-64v-64h-64z" />
    <glyph glyph-name="Aring" unicode="&#xc5;" 
d="M192 512v64h64v-64h-64zM384 0h-64v64v64v64h-64h-64v64h64h64v64v64h-64h-64h-64v-64v-64v-64v-64v-64v-64h-64h-64v64v64v64v64v64v64h64v64h64h64h64h64h64v-64h64v-64v-64v-64v-64v-64v-64h-64zM256 576v64h64v-64h-64zM192 576h-64v64h64v-64zM256 640h-64v64h64
v-64z" />
    <glyph glyph-name="AE" unicode="&#xc6;" horiz-adv-x="768" 
d="M640 64h64v-64h-64h-64h-64h-64h-64h-64v64v64v64h-64h-64v64h64h64v64v64h-64h-64h-64v-64v-64v-64v-64v-64v-64h-64h-64v64v64v64v64v64v64h64v64h64h64h64h64h64h64h64h64h64h64v-64h-64h-64h-64h-64v-64v-64h64h64h64v-64h-64h-64h-64v-64v-64h64h64h64z" />
    <glyph glyph-name="Ccedilla" unicode="&#xc7;" horiz-adv-x="448" 
d="M192 -128h-64v64h64v64h-64h-64v64h-64v64v64v64v64v64h64v64h64h64h64h64h64v-64h-64h-64h-64h-64v-64v-64v-64v-64v-64h64h64h64h64v-64h-64v-64h-64v-64h-64z" />
    <glyph glyph-name="Egrave" unicode="&#xc8;" 
d="M384 64h64v-64h-64h-64h-64h-64h-64h-64h-64v64h64v64v64v64v64v64h-64v64h64h64h64h64h64h64h64v-64h-64h-64h-64h-64v-64v-64h64h64h64v-64h-64h-64h-64v-64v-64h64h64h64zM320 512h-64v64h-64v64h64h64v-64h64v-64h-64z" />
    <glyph glyph-name="Eacute" unicode="&#xc9;" 
d="M384 64h64v-64h-64h-64h-64h-64h-64h-64h-64v64h64v64v64v64v64v64h-64v64h64h64h64h64h64h64h64v-64h-64h-64h-64h-64v-64v-64h64h64h64v-64h-64h-64h-64v-64v-64h64h64h64zM256 512h-64v64h64v64h64h64v-64h-64v-64h-64z" />
    <glyph glyph-name="Ecircumflex" unicode="&#xca;" 
d="M320 512v64h64v-64h-64zM384 64h64v-64h-64h-64h-64h-64h-64h-64h-64v64h64v64v64v64v64v64h-64v64h64h64h64h64h64h64h64v-64h-64h-64h-64h-64v-64v-64h64h64h64v-64h-64h-64h-64v-64v-64h64h64h64zM192 512h-64v64h64v64h64h64v-64h-64v-64h-64z" />
    <glyph glyph-name="Edieresis" unicode="&#xcb;" 
d="M320 512v64h64v-64h-64zM128 512v64h64v-64h-64zM384 64h64v-64h-64h-64h-64h-64h-64h-64h-64v64h64v64v64v64v64v64h-64v64h64h64h64h64h64h64h64v-64h-64h-64h-64h-64v-64v-64h64h64h64v-64h-64h-64h-64v-64v-64h64h64h64z" />
    <glyph glyph-name="Igrave" unicode="&#xcc;" horiz-adv-x="320" 
d="M192 0h-64h-64h-64v64h64v64v64v64v64v64h-64v64h64h64h64h64v-64h-64v-64v-64v-64v-64v-64h64v-64h-64zM128 512h-64v64h-64v64h64h64v-64h64v-64h-64z" />
    <glyph glyph-name="Iacute" unicode="&#xcd;" horiz-adv-x="320" 
d="M192 0h-64h-64h-64v64h64v64v64v64v64v64h-64v64h64h64h64h64v-64h-64v-64v-64v-64v-64v-64h64v-64h-64zM128 512h-64v64h64v64h64h64v-64h-64v-64h-64z" />
    <glyph glyph-name="Icircumflex" unicode="&#xce;" horiz-adv-x="320" 
d="M192 512v64h64v-64h-64zM192 0h-64h-64h-64v64h64v64v64v64v64v64h-64v64h64h64h64h64v-64h-64v-64v-64v-64v-64v-64h64v-64h-64zM64 512h-64v64h64v64h64h64v-64h-64v-64h-64z" />
    <glyph glyph-name="Idieresis" unicode="&#xcf;" horiz-adv-x="320" 
d="M192 512v64h64v-64h-64zM0 512v64h64v-64h-64zM192 0h-64h-64h-64v64h64v64v64v64v64v64h-64v64h64h64h64h64v-64h-64v-64v-64v-64v-64v-64h64v-64h-64z" />
    <glyph glyph-name="Eth" unicode="&#xd0;" horiz-adv-x="576" 
d="M384 0h-64h-64h-64h-64h-64h-64v64h64v64v64h-64v64h64v64v64h-64v64h64h64h64h64h64h64v-64h64v-64h64v-64v-64v-64v-64h-64v-64h-64zM320 64h64v64v64v64v64h-64v64h-64h-64v-64v-64h64h64v-64h-64h-64v-64v-64h64h64z" />
    <glyph glyph-name="Ntilde" unicode="&#xd1;" horiz-adv-x="448" 
d="M64 512v64h64v-64h-64zM320 0h-64v64v64v64h-64v64v64h64v64v64h64h64v-64v-64v-64v-64v-64v-64v-64h-64zM64 0h-64v64v64v64v64v64v64v64h64h64h64v-64v-64h-64v-64v-64v-64v-64v-64h-64zM256 512h-64v64h-64v64h64h64v-64h64v-64h-64zM320 576v64h64v-64h-64z" />
    <glyph glyph-name="Ograve" unicode="&#xd2;" 
d="M320 0h-64h-64h-64h-64v64h-64v64v64v64v64v64h64v64h64h64h64h64h64v-64h64v-64v-64v-64v-64v-64h-64v-64h-64zM256 64h64v64v64v64v64v64h-64h-64h-64v-64v-64v-64v-64v-64h64h64zM256 512h-64v64h-64v64h64h64v-64h64v-64h-64z" />
    <glyph glyph-name="Oacute" unicode="&#xd3;" 
d="M320 0h-64h-64h-64h-64v64h-64v64v64v64v64v64h64v64h64h64h64h64h64v-64h64v-64v-64v-64v-64v-64h-64v-64h-64zM256 64h64v64v64v64v64v64h-64h-64h-64v-64v-64v-64v-64v-64h64h64zM192 512h-64v64h64v64h64h64v-64h-64v-64h-64z" />
    <glyph glyph-name="Ocircumflex" unicode="&#xd4;" 
d="M256 512v64h64v-64h-64zM128 512v64h64v-64h-64zM320 0h-64h-64h-64h-64v64h-64v64v64v64v64v64h64v64h64h64h64h64h64v-64h64v-64v-64v-64v-64v-64h-64v-64h-64zM256 64h64v64v64v64v64v64h-64h-64h-64v-64v-64v-64v-64v-64h64h64zM256 576h-64v64h64v-64z" />
    <glyph glyph-name="Otilde" unicode="&#xd5;" 
d="M64 512v64h64v-64h-64zM320 0h-64h-64h-64h-64v64h-64v64v64v64v64v64h64v64h64h64h64h64h64v-64h64v-64v-64v-64v-64v-64h-64v-64h-64zM256 64h64v64v64v64v64v64h-64h-64h-64v-64v-64v-64v-64v-64h64h64zM256 512h-64v64h-64v64h64h64v-64h64v-64h-64zM320 576v64h64
v-64h-64z" />
    <glyph glyph-name="Odieresis" unicode="&#xd6;" 
d="M256 512v64h64v-64h-64zM128 512v64h64v-64h-64zM320 0h-64h-64h-64h-64v64h-64v64v64v64v64v64h64v64h64h64h64h64h64v-64h64v-64v-64v-64v-64v-64h-64v-64h-64zM256 64h64v64v64v64v64v64h-64h-64h-64v-64v-64v-64v-64v-64h64h64z" />
    <glyph glyph-name="Oslash" unicode="&#xd8;" 
d="M0 0v64h64v-64h-64zM320 0h-64h-64h-64v64h-64v64h-64v64v64v64v64h64v64h64h64h64h64v-64h-64h-64h-64v-64v-64v-64h64v64h64v64h64v64h64v-64h64v-64v-64v-64v-64h-64v-64h-64zM256 64h64v64v64v64h-64v-64h-64v-64h-64v-64h64h64zM384 384v64h64v-64h-64z" />
    <glyph glyph-name="Ugrave" unicode="&#xd9;" 
d="M320 0h-64h-64h-64h-64v64h-64v64v64v64v64v64v64h64h64v-64v-64v-64v-64v-64v-64h64h64h64v64v64v64v64v64v64h64h64v-64v-64v-64v-64v-64v-64h-64v-64h-64zM256 512h-64v64h-64v64h64h64v-64h64v-64h-64z" />
    <glyph glyph-name="Uacute" unicode="&#xda;" 
d="M320 0h-64h-64h-64h-64v64h-64v64v64v64v64v64v64h64h64v-64v-64v-64v-64v-64v-64h64h64h64v64v64v64v64v64v64h64h64v-64v-64v-64v-64v-64v-64h-64v-64h-64zM192 512h-64v64h64v64h64h64v-64h-64v-64h-64z" />
    <glyph glyph-name="Ucircumflex" unicode="&#xdb;" 
d="M256 512v64h64v-64h-64zM128 512v64h64v-64h-64zM320 0h-64h-64h-64h-64v64h-64v64v64v64v64v64v64h64h64v-64v-64v-64v-64v-64v-64h64h64h64v64v64v64v64v64v64h64h64v-64v-64v-64v-64v-64v-64h-64v-64h-64zM256 576h-64v64h64v-64z" />
    <glyph glyph-name="Udieresis" unicode="&#xdc;" 
d="M256 512v64h64v-64h-64zM128 512v64h64v-64h-64zM320 0h-64h-64h-64h-64v64h-64v64v64v64v64v64v64h64h64v-64v-64v-64v-64v-64v-64h64h64h64v64v64v64v64v64v64h64h64v-64v-64v-64v-64v-64v-64h-64v-64h-64z" />
    <glyph glyph-name="Yacute" unicode="&#xdd;" horiz-adv-x="448" 
d="M128 -64h-64h-64v64h64h64v64h64v64h64v64v64v64v64h-64v64h64h64h64v-64v-64v-64v-64v-64h-64v-64h-64v-64h-64v-64h-64zM192 128h-64h-64v64h-64v64v64v64v64h64h64v-64v-64v-64v-64h64v-64zM192 512h-64v64h64v64h64h64v-64h-64v-64h-64z" />
    <glyph glyph-name="Thorn" unicode="&#xde;" horiz-adv-x="576" 
d="M128 0h-64v64h-64v64h64v64v64v64v64v64h64h64v-64h64h64h64h64v-64h64v-64v-64v-64h-64v-64h-64h-64h-64h-64v-64h-64zM320 128h64v64v64v64h-64h-64h-64v-64v-64v-64h64h64z" />
    <glyph glyph-name="germandbls" unicode="&#xdf;" horiz-adv-x="576" 
d="M256 128v64v64h64v64v64h-64h-64v-64v-64v-64v-64v-64h-64v-64h-64h-64v64h64v64v64v64v64v64h64v64h64h64h64h64v-64h64v-64v-64h-64v-64h64h64v-64v-64h-64v-64h-64h-64h-64v64h64h64v64v64h-64v-64h-64z" />
    <glyph glyph-name="agrave" unicode="&#xe0;" 
d="M384 0h-64h-64h-64h-64h-64v64h-64v64v64h64v64h64h64h64v64h-64h-64h-64v64h64h64h64h64v-64h64v-64v-64v-64v-64h64v-64h-64zM192 64h64v64v64h-64h-64v-64v-64h64zM256 448h-64v64h-64v64h64h64v-64h64v-64h-64z" />
    <glyph glyph-name="aacute" unicode="&#xe1;" 
d="M384 0h-64h-64h-64h-64h-64v64h-64v64v64h64v64h64h64h64v64h-64h-64h-64v64h64h64h64h64v-64h64v-64v-64v-64v-64h64v-64h-64zM192 64h64v64v64h-64h-64v-64v-64h64zM192 448h-64v64h64v64h64h64v-64h-64v-64h-64z" />
    <glyph glyph-name="acircumflex" unicode="&#xe2;" 
d="M256 448v64h64v-64h-64zM128 448v64h64v-64h-64zM384 0h-64h-64h-64h-64h-64v64h-64v64v64h64v64h64h64h64v64h-64h-64h-64v64h64h64h64h64v-64h64v-64v-64v-64v-64h64v-64h-64zM192 64h64v64v64h-64h-64v-64v-64h64zM256 512h-64v64h64v-64z" />
    <glyph glyph-name="atilde" unicode="&#xe3;" 
d="M64 448v64h64v-64h-64zM384 0h-64h-64h-64h-64h-64v64h-64v64v64h64v64h64h64h64v64h-64h-64h-64v64h64h64h64h64v-64h64v-64v-64v-64v-64h64v-64h-64zM192 64h64v64v64h-64h-64v-64v-64h64zM256 448h-64v64h-64v64h64h64v-64h64v-64h-64zM320 512v64h64v-64h-64z" />
    <glyph glyph-name="adieresis" unicode="&#xe4;" 
d="M256 448v64h64v-64h-64zM128 448v64h64v-64h-64zM384 0h-64h-64h-64h-64h-64v64h-64v64v64h64v64h64h64h64v64h-64h-64h-64v64h64h64h64h64v-64h64v-64v-64v-64v-64h64v-64h-64zM192 64h64v64v64h-64h-64v-64v-64h64z" />
    <glyph glyph-name="aring" unicode="&#xe5;" 
d="M192 448v64h64v-64h-64zM384 0h-64h-64h-64h-64h-64v64h-64v64v64h64v64h64h64h64v64h-64h-64h-64v64h64h64h64h64v-64h64v-64v-64v-64v-64h64v-64h-64zM192 64h64v64v64h-64h-64v-64v-64h64zM256 512v64h64v-64h-64zM192 512h-64v64h64v-64zM256 576h-64v64h64v-64z" />
    <glyph glyph-name="ae" unicode="&#xe6;" horiz-adv-x="704" 
d="M512 64h64v-64h-64h-64h-64v64h64h64zM256 0h-64h-64h-64v64h-64v64v64h64v64h64h64h64v64h64v64h64h64h64h64v-64h64v-64v-64h-64v-64h-64h-64v64h64v64v64h-64h-64v-64v-64v-64v-64h-64v-64h-64zM192 64h64v64v64h-64h-64v-64v-64h64zM256 320h-64h-64h-64v64h64h64h64
v-64z" />
    <glyph glyph-name="ccedilla" unicode="&#xe7;" horiz-adv-x="384" 
d="M128 -128v64h64v-64h-64zM192 -64v64h-64h-64v64h-64v64v64v64v64h64v64h64h64h64h64v-64h-64h-64h-64v-64v-64v-64v-64h64h64h64v-64h-64v-64h-64z" />
    <glyph glyph-name="egrave" unicode="&#xe8;" horiz-adv-x="448" 
d="M256 64h64v-64h-64h-64h-64h-64v64h-64v64v64v64v64h64v64h64h64h64h64v-64h64v-64v-64h-64v-64h-64h-64v64h64v64v64h-64h-64v-64v-64v-64v-64h64h64zM192 448h-64v64h-64v64h64h64v-64h64v-64h-64z" />
    <glyph glyph-name="eacute" unicode="&#xe9;" horiz-adv-x="448" 
d="M256 64h64v-64h-64h-64h-64h-64v64h-64v64v64v64v64h64v64h64h64h64h64v-64h64v-64v-64h-64v-64h-64h-64v64h64v64v64h-64h-64v-64v-64v-64v-64h64h64zM192 448h-64v64h64v64h64h64v-64h-64v-64h-64z" />
    <glyph glyph-name="ecircumflex" unicode="&#xea;" horiz-adv-x="448" 
d="M256 448v64h64v-64h-64zM256 64h64v-64h-64h-64h-64h-64v64h-64v64v64v64v64h64v64h64h64h64h64v-64h64v-64v-64h-64v-64h-64h-64v64h64v64v64h-64h-64v-64v-64v-64v-64h64h64zM128 448h-64v64h64v64h64h64v-64h-64v-64h-64z" />
    <glyph glyph-name="edieresis" unicode="&#xeb;" horiz-adv-x="448" 
d="M256 448v64h64v-64h-64zM64 448v64h64v-64h-64zM256 64h64v-64h-64h-64h-64h-64v64h-64v64v64v64v64h64v64h64h64h64h64v-64h64v-64v-64h-64v-64h-64h-64v64h64v64v64h-64h-64v-64v-64v-64v-64h64h64z" />
    <glyph glyph-name="igrave" unicode="&#xec;" horiz-adv-x="320" 
d="M192 0h-64h-64h-64v64h64v64v64v64v64h-64v64h64h64h64v-64v-64v-64v-64v-64h64v-64h-64zM128 448h-64v64h-64v64h64h64v-64h64v-64h-64z" />
    <glyph glyph-name="iacute" unicode="&#xed;" horiz-adv-x="320" 
d="M192 0h-64h-64h-64v64h64v64v64v64v64h-64v64h64h64h64v-64v-64v-64v-64v-64h64v-64h-64zM128 448h-64v64h64v64h64h64v-64h-64v-64h-64z" />
    <glyph glyph-name="icircumflex" unicode="&#xee;" horiz-adv-x="320" 
d="M128 448v64h64v-64h-64zM0 448v64h64v-64h-64zM192 0h-64h-64h-64v64h64v64v64v64v64h-64v64h64h64h64v-64v-64v-64v-64v-64h64v-64h-64zM128 512h-64v64h64v-64z" />
    <glyph glyph-name="idieresis" unicode="&#xef;" horiz-adv-x="320" 
d="M128 448v64h64v-64h-64zM0 448v64h64v-64h-64zM192 0h-64h-64h-64v64h64v64v64v64v64h-64v64h64h64h64v-64v-64v-64v-64v-64h64v-64h-64z" />
    <glyph glyph-name="eth" unicode="&#xf0;" horiz-adv-x="448" 
d="M192 64h64v64v64h-64v64h-64v-64v-64v-64h64zM192 0h-64h-64v64h-64v64v64v64h64v64h64h64v-64h64v64v64h-64v64h64h64v-64h64v-64v-64v-64v-64h-64v-64h-64v-64h-64zM320 448v64h64v-64h-64zM192 448h-64v64h64v-64z" />
    <glyph glyph-name="ntilde" unicode="&#xf1;" 
d="M64 448v64h64v-64h-64zM384 0h-64v64v64v64v64v64h-64v-64h-64v-64v-64v-64h-64v-64h-64h-64v64h64v64v64v64v64h-64v64h64h64h64v-64h64v64h64h64v-64h64v-64v-64v-64v-64v-64h-64zM256 448h-64v64h-64v64h64h64v-64h64v-64h-64zM320 512v64h64v-64h-64z" />
    <glyph glyph-name="ograve" unicode="&#xf2;" horiz-adv-x="448" 
d="M256 0h-64h-64h-64v64h-64v64v64v64v64h64v64h64h64h64h64v-64h64v-64v-64v-64v-64h-64v-64h-64zM192 64h64v64v64v64v64h-64h-64v-64v-64v-64v-64h64zM192 448h-64v64h-64v64h64h64v-64h64v-64h-64z" />
    <glyph glyph-name="oacute" unicode="&#xf3;" horiz-adv-x="448" 
d="M256 0h-64h-64h-64v64h-64v64v64v64v64h64v64h64h64h64h64v-64h64v-64v-64v-64v-64h-64v-64h-64zM192 64h64v64v64v64v64h-64h-64v-64v-64v-64v-64h64zM192 448h-64v64h64v64h64h64v-64h-64v-64h-64z" />
    <glyph glyph-name="ocircumflex" unicode="&#xf4;" horiz-adv-x="448" 
d="M256 448v64h64v-64h-64zM256 0h-64h-64h-64v64h-64v64v64v64v64h64v64h64h64h64h64v-64h64v-64v-64v-64v-64h-64v-64h-64zM192 64h64v64v64v64v64h-64h-64v-64v-64v-64v-64h64zM128 448h-64v64h64v64h64h64v-64h-64v-64h-64z" />
    <glyph glyph-name="otilde" unicode="&#xf5;" horiz-adv-x="448" 
d="M64 448v64h64v-64h-64zM256 0h-64h-64h-64v64h-64v64v64v64v64h64v64h64h64h64h64v-64h64v-64v-64v-64v-64h-64v-64h-64zM192 64h64v64v64v64v64h-64h-64v-64v-64v-64v-64h64zM256 448h-64v64h-64v64h64h64v-64h64v-64h-64zM320 512v64h64v-64h-64z" />
    <glyph glyph-name="odieresis" unicode="&#xf6;" horiz-adv-x="448" 
d="M256 448v64h64v-64h-64zM64 448v64h64v-64h-64zM256 0h-64h-64h-64v64h-64v64v64v64v64h64v64h64h64h64h64v-64h64v-64v-64v-64v-64h-64v-64h-64zM192 64h64v64v64v64v64h-64h-64v-64v-64v-64v-64h64z" />
    <glyph glyph-name="oslash" unicode="&#xf8;" horiz-adv-x="448" 
d="M256 0h-64h-64h-64v64h-64v64v64v64v64h64v64h64h64h64h64v-64h64v-64v-64v-64v-64h-64v-64h-64zM192 64h64v64v64h-64v64h64v64h-64h-64v-64v-64h64v-64h-64v-64h64z" />
    <glyph glyph-name="ugrave" unicode="&#xf9;" horiz-adv-x="448" 
d="M256 0h-64h-64h-64v64h-64v64v64v64v64v64h64h64v-64v-64v-64v-64v-64h64h64v64v64v64v64v64h64h64v-64v-64v-64v-64v-64h-64v-64h-64zM192 448h-64v64h-64v64h64h64v-64h64v-64h-64z" />
    <glyph glyph-name="uacute" unicode="&#xfa;" horiz-adv-x="448" 
d="M256 0h-64h-64h-64v64h-64v64v64v64v64v64h64h64v-64v-64v-64v-64v-64h64h64v64v64v64v64v64h64h64v-64v-64v-64v-64v-64h-64v-64h-64zM192 448h-64v64h64v64h64h64v-64h-64v-64h-64z" />
    <glyph glyph-name="ucircumflex" unicode="&#xfb;" horiz-adv-x="448" 
d="M256 448v64h64v-64h-64zM256 0h-64h-64h-64v64h-64v64v64v64v64v64h64h64v-64v-64v-64v-64v-64h64h64v64v64v64v64v64h64h64v-64v-64v-64v-64v-64h-64v-64h-64zM128 448h-64v64h64v64h64h64v-64h-64v-64h-64z" />
    <glyph glyph-name="udieresis" unicode="&#xfc;" horiz-adv-x="448" 
d="M256 448v64h64v-64h-64zM64 448v64h64v-64h-64zM256 0h-64h-64h-64v64h-64v64v64v64v64v64h64h64v-64v-64v-64v-64v-64h64h64v64v64v64v64v64h64h64v-64v-64v-64v-64v-64h-64v-64h-64z" />
    <glyph glyph-name="yacute" unicode="&#xfd;" horiz-adv-x="448" 
d="M192 -64h-64h-64v64h64h64v64h64v64v64v64v64h-64v64h64h64h64v-64v-64v-64v-64v-64h-64v-64h-64v-64h-64zM192 64h-64h-64v64h-64v64v64v64v64h64h64v-64v-64v-64v-64h64v-64zM192 448h-64v64h64v64h64h64v-64h-64v-64h-64z" />
    <glyph glyph-name="thorn" unicode="&#xfe;" 
d="M64 -128h-64v64v64v64v64v64v64v64v64v64h64h64v-64v-64h64h64h64h64v-64h64v-64v-64v-64h-64v-64h-64h-64h-64h-64v-64v-64h-64zM256 64h64v64v64v64h-64h-64h-64v-64v-64v-64h64h64z" />
    <glyph glyph-name="ydieresis" unicode="&#xff;" horiz-adv-x="448" 
d="M192 448v64h64v-64h-64zM64 448v64h64v-64h-64zM192 -64h-64h-64v64h64h64v64h64v64v64v64v64h-64v64h64h64h64v-64v-64v-64v-64v-64h-64v-64h-64v-64h-64zM192 64h-64h-64v64h-64v64v64v64v64h64h64v-64v-64v-64v-64h64v-64z" />
    <glyph glyph-name="OE" unicode="&#x152;" horiz-adv-x="768" 
d="M640 64h64v-64h-64h-64h-64h-64h-64h-64h-64h-64h-64h-64v64h-64v64v64v64v64v64h64v64h64h64h64h64h64h64h64h64h64h64v-64h-64h-64h-64h-64v-64v-64h64h64h64v-64h-64h-64h-64v-64v-64h64h64h64zM256 64h64v64v64v64v64v64h-64h-64h-64v-64v-64v-64v-64v-64h64h64z" />
    <glyph glyph-name="oe" unicode="&#x153;" horiz-adv-x="704" 
d="M512 64h64v-64h-64h-64h-64v64h64h64zM256 0h-64h-64h-64v64h-64v64v64v64v64h64v64h64h64h64v-64h-64h-64v-64v-64v-64v-64h64h64v64v64v64v64h64v64h64h64h64h64v-64h64v-64v-64h-64v-64h-64h-64v64h64v64v64h-64h-64v-64v-64v-64v-64h-64v-64h-64z" />
    <glyph glyph-name="Ydieresis" unicode="&#x178;" horiz-adv-x="448" 
d="M192 448v64h64v-64h-64zM64 448v64h64v-64h-64zM192 -64h-64h-64v64h64h64v64h64v64v64v64v64h-64v64h64h64h64v-64v-64v-64v-64v-64h-64v-64h-64v-64h-64zM192 64h-64h-64v64h-64v64v64v64v64h64h64v-64v-64v-64v-64h64v-64z" />
    <glyph glyph-name="afii10023" unicode="&#x401;" 
d="M320 512v64h64v-64h-64zM128 512v64h64v-64h-64zM384 64h64v-64h-64h-64h-64h-64h-64h-64h-64v64h64v64v64v64v64v64h-64v64h64h64h64h64h64h64h64v-64h-64h-64h-64h-64v-64v-64h64h64h64v-64h-64h-64h-64v-64v-64h64h64h64z" />
    <glyph glyph-name="afii10017" unicode="&#x410;" 
d="M384 0h-64v64v64v64h-64h-64v64h64h64v64v64h-64h-64h-64v-64v-64v-64v-64v-64v-64h-64h-64v64v64v64v64v64v64h64v64h64h64h64h64h64v-64h64v-64v-64v-64v-64v-64v-64h-64z" />
    <glyph glyph-name="afii10018" unicode="&#x411;" horiz-adv-x="576" 
d="M384 320v64h-64h-64h-64v-64v-64v-64v-64v-64h64h64h64v64v64h-64h-64v64h64h64h64v-64h64v-64v-64h-64v-64h-64h-64h-64h-64h-64h-64h-64v64h64v64v64v64v64v64h-64v64h64h64h64h64h64h64h64v-64v-64h-64z" />
    <glyph glyph-name="afii10019" unicode="&#x412;" horiz-adv-x="576" 
d="M384 0h-64h-64h-64h-64h-64h-64v64h64v64v64v64v64v64h-64v64h64h64h64h64h64h64h64v-64h64v-64v-64h-64v-64h64v-64v-64h-64v-64h-64zM320 64h64v64v64h-64h-64v64h64h64v64v64h-64h-64h-64v-64v-64v-64v-64v-64h64h64z" />
    <glyph glyph-name="afii10020" unicode="&#x413;" horiz-adv-x="448" 
d="M320 320v64h-64h-64v-64v-64v-64v-64v-64h64v-64h-64h-64h-64h-64v64h64v64v64v64v64v64h-64v64h64h64h64h64h64h64v-64v-64h-64z" />
    <glyph glyph-name="afii10021" unicode="&#x414;" horiz-adv-x="576" 
d="M448 -64h-64v64h-64h-64h-64h-64v-64h-64h-64v64v64h64v64v64h64v64v64v64v64h64h64h64h64h64h64v-64h-64v-64v-64v-64v-64v-64h64v-64v-64h-64zM256 64h64v64v64v64v64v64h-64v-64v-64v-64h-64v-64v-64h64z" />
    <glyph glyph-name="afii10022" unicode="&#x415;" 
d="M384 64h64v-64h-64h-64h-64h-64h-64h-64h-64v64h64v64v64v64v64v64h-64v64h64h64h64h64h64h64h64v-64h-64h-64h-64h-64v-64v-64h64h64h64v-64h-64h-64h-64v-64v-64h64h64h64z" />
    <glyph glyph-name="afii10024" unicode="&#x416;" horiz-adv-x="576" 
d="M448 0h-64v64v64h-64v-64v-64h-64h-64v64v64h-64v-64v-64h-64h-64v64v64h64v64h64h64v64h-64h-64v64h-64v64v64h64h64v-64v-64h64v64v64h64h64v-64v-64h64v64v64h64h64v-64v-64h-64v-64h-64h-64v-64h64h64v-64h64v-64v-64h-64z" />
    <glyph glyph-name="afii10025" unicode="&#x417;" horiz-adv-x="448" 
d="M256 0h-64h-64h-64h-64v64h64h64h64h64v64v64h-64h-64h-64v64h64h64h64v64v64h-64h-64h-64h-64v64h64h64h64h64h64v-64h64v-64v-64h-64v-64h64v-64v-64h-64v-64h-64z" />
    <glyph glyph-name="afii10026" unicode="&#x418;" 
d="M384 0h-64v64v64v64v64h-64v-64h-64v-64h-64v-64v-64h-64h-64v64v64v64v64v64v64v64h64h64v-64v-64v-64v-64h64v64h64v64h64v64v64h64h64v-64v-64v-64v-64v-64v-64v-64h-64z" />
    <glyph glyph-name="afii10027" unicode="&#x419;" 
d="M384 0h-64v64v64v64v64h-64v-64h-64v-64h-64v-64v-64h-64h-64v64v64v64v64v64v64v64h64h64v-64v-64v-64v-64h64v64h64v64h64v64v64h64h64v-64v-64v-64v-64v-64v-64v-64h-64zM256 512h-64h-64v64h-64v64h64h64v-64h64v64h64h64v-64h-64v-64h-64z" />
    <glyph glyph-name="afii10028" unicode="&#x41a;" horiz-adv-x="576" 
d="M448 0h-64v64v64h-64v64h64h64v-64h64v-64v-64h-64zM128 0h-64h-64v64h64v64v64v64v64v64h-64v64h64h64h64v-64v-64v-64h64v64h64v64v64h64h64v-64v-64h-64v-64h-64v-64h-64h-64v-64v-64v-64h-64z" />
    <glyph glyph-name="afii10029" unicode="&#x41b;" horiz-adv-x="576" 
d="M448 0h-64h-64v64v64v64v64v64v64h-64h-64v-64v-64v-64v-64v-64h-64v-64h-64h-64v64h64v64v64v64v64v64v64h64h64h64h64h64h64v-64v-64v-64v-64v-64v-64h64v-64h-64z" />
    <glyph glyph-name="afii10030" unicode="&#x41c;" 
d="M192 192v64v64h64v64h64v64h64h64v-64v-64v-64v-64v-64v-64v-64h-64h-64v64v64v64v64h-64v-64h-64zM64 0h-64v64v64v64v64v64v64v64h64h64h64v-64v-64h-64v-64v-64v-64v-64v-64h-64z" />
    <glyph glyph-name="afii10031" unicode="&#x41d;" 
d="M384 0h-64v64v64v64h-64h-64h-64v-64v-64v-64h-64h-64v64v64v64v64v64v64v64h64h64v-64v-64v-64h64h64h64v64v64v64h64h64v-64v-64v-64v-64v-64v-64v-64h-64z" />
    <glyph glyph-name="afii10032" unicode="&#x41e;" 
d="M320 0h-64h-64h-64h-64v64h-64v64v64v64v64v64h64v64h64h64h64h64h64v-64h64v-64v-64v-64v-64v-64h-64v-64h-64zM256 64h64v64v64v64v64v64h-64h-64h-64v-64v-64v-64v-64v-64h64h64z" />
    <glyph glyph-name="afii10033" unicode="&#x41f;" 
d="M384 0h-64v64v64v64v64v64v64h-64h-64h-64v-64v-64v-64v-64v-64v-64h-64h-64v64v64v64v64v64v64v64h64h64h64h64h64h64h64v-64v-64v-64v-64v-64v-64v-64h-64z" />
    <glyph glyph-name="afii10034" unicode="&#x420;" horiz-adv-x="576" 
d="M192 0h-64h-64h-64v64h64v64v64v64v64v64h-64v64h64h64h64h64h64h64h64v-64h64v-64v-64v-64h-64v-64h-64h-64h-64v64h64h64v64v64v64h-64h-64h-64v-64v-64v-64v-64v-64h64v-64h-64z" />
    <glyph glyph-name="afii10035" unicode="&#x421;" horiz-adv-x="448" 
d="M320 64h64v-64h-64h-64h-64h-64h-64v64h-64v64v64v64v64v64h64v64h64h64h64h64h64v-64h-64h-64h-64h-64v-64v-64v-64v-64v-64h64h64h64z" />
    <glyph glyph-name="afii10036" unicode="&#x422;" horiz-adv-x="448" 
d="M192 0h-64v64v64v64v64v64v64h-64h-64v64h64h64h64h64h64h64v-64h-64h-64v-64v-64v-64v-64v-64v-64h-64z" />
    <glyph glyph-name="afii10037" unicode="&#x423;" horiz-adv-x="448" 
d="M128 -64h-64h-64v64h64h64v64h64v64h64v64v64v64v64h-64v64h64h64h64v-64v-64v-64v-64v-64h-64v-64h-64v-64h-64v-64h-64zM192 128h-64h-64v64h-64v64v64v64v64h64h64v-64v-64v-64v-64h64v-64z" />
    <glyph glyph-name="afii10038" unicode="&#x424;" horiz-adv-x="576" 
d="M256 0h-64v64h-64h-64v64h-64v64v64v64h64v64h64h64v64h64h64v-64h64h64v-64h64v-64v-64v-64h-64v-64h-64h-64v-64h-64zM384 128v64v64v64h-64v-64v-64v-64h64zM192 128v64v64v64h-64v-64v-64v-64h64z" />
    <glyph glyph-name="afii10039" unicode="&#x425;" 
d="M384 0h-64v64v64h-64v64h-64v-64h-64v-64v-64h-64h-64v64v64h64v64h64v64h-64v64h-64v64v64h64h64v-64v-64h64v-64h64v64h64v64v64h64h64v-64v-64h-64v-64h-64v-64h64v-64h64v-64v-64h-64z" />
    <glyph glyph-name="afii10040" unicode="&#x426;" horiz-adv-x="576" 
d="M448 -64h-64v64h-64h-64h-64h-64h-64v64h-64v64v64v64v64v64v64h64h64v-64v-64v-64v-64v-64v-64h64h64h64v64v64v64v64v64v64h64h64v-64v-64v-64v-64v-64v-64h64v-64v-64h-64z" />
    <glyph glyph-name="afii10041" unicode="&#x427;" 
d="M384 0h-64v64v64h-64h-64h-64h-64v64h-64v64v64v64v64h64h64v-64v-64v-64v-64h64h64h64v64v64v64v64h64h64v-64v-64v-64v-64v-64v-64v-64h-64z" />
    <glyph glyph-name="afii10042" unicode="&#x428;" horiz-adv-x="576" 
d="M320 0h-64v64h-64v-64h-64h-64v64h-64v64v64v64v64v64v64h64h64v-64v-64v-64v-64v-64v-64h64v64v64v64v64v64v64h64h64v-64v-64v-64v-64v-64v-64h64v-64h-64zM384 64v64v64v64v64v64v64h64h64v-64v-64v-64v-64v-64h-64v-64h-64z" />
    <glyph glyph-name="afii10043" unicode="&#x429;" horiz-adv-x="640" 
d="M512 -64h-64v64h-64h-64h-64v64h-64v-64h-64h-64v64h-64v64v64v64v64v64v64h64h64v-64v-64v-64v-64v-64v-64h64v64v64v64v64v64v64h64h64v-64v-64v-64v-64v-64v-64h64v64v64v64v64v64v64h64h64v-64v-64v-64v-64v-64v-64h64v-64v-64h-64z" />
    <glyph glyph-name="afii10044" unicode="&#x42a;" horiz-adv-x="640" 
d="M0 320v64v64h64h64h64h64h64v-64h-64v-64v-64v-64v-64v-64h64h64h64v64v64h-64h-64v64h64h64h64v-64h64v-64v-64h-64v-64h-64h-64h-64h-64h-64h-64v64v64v64v64v64v64h-64v-64h-64z" />
    <glyph glyph-name="afii10045" unicode="&#x42b;" horiz-adv-x="768" 
d="M640 0h-64h-64h-64v64h64v64v64v64v64v64h-64v64h64h64h64h64v-64h-64v-64v-64v-64v-64v-64h64v-64h-64zM320 0h-64h-64h-64h-64h-64v64h64v64v64v64v64v64h-64v64h64h64h64h64v-64h-64v-64v-64v-64v-64v-64h64h64v64v64h-64v64h64h64v-64h64v-64v-64h-64v-64h-64z" />
    <glyph glyph-name="afii10046" unicode="&#x42c;" horiz-adv-x="576" 
d="M384 0h-64h-64h-64h-64h-64h-64v64h64v64v64v64v64v64h-64v64h64h64h64h64v-64h-64v-64v-64v-64v-64v-64h64h64h64v64v64h-64h-64v64h64h64h64v-64h64v-64v-64h-64v-64h-64z" />
    <glyph glyph-name="afii10047" unicode="&#x42d;" horiz-adv-x="448" 
d="M0 320v64v64h64h64h64h64v-64h64v-64h64v-64v-64v-64h-64v-64h-64v-64h-64h-64h-64h-64v64v64h64v-64h64h64v64h64v64h-64h-64h-64v64h64h64h64v64h-64v64h-64h-64v-64h-64z" />
    <glyph glyph-name="afii10048" unicode="&#x42e;" horiz-adv-x="704" 
d="M512 0h-64h-64h-64v64h-64v64v64h-64v-64v-64h64v-64h-64h-64h-64h-64v64h64v64v64v64v64v64h-64v64h64h64h64h64v-64h-64v-64v-64h64v64v64h64v64h64h64h64h64v-64h64v-64v-64v-64v-64v-64h-64v-64h-64zM448 64h64v64v64v64v64v64h-64h-64v-64v-64v-64v-64v-64h64z" />
    <glyph glyph-name="afii10049" unicode="&#x42f;" horiz-adv-x="576" 
d="M448 0h-64h-64v64v64v64v64v64v64h-64h-64v-64v-64h64v-64h-64v-64h-64v-64v-64h-64h-64v64v64h64v64h64v64h-64v64v64h64v64h64h64h64h64h64h64v-64h-64v-64v-64v-64v-64v-64h64v-64h-64z" />
    <glyph glyph-name="afii10065" unicode="&#x430;" 
d="M384 0h-64h-64h-64h-64h-64v64h-64v64v64h64v64h64h64h64v64h-64h-64h-64v64h64h64h64h64v-64h64v-64v-64v-64v-64h64v-64h-64zM192 64h64v64v64h-64h-64v-64v-64h64z" />
    <glyph glyph-name="afii10066" unicode="&#x431;" 
d="M320 0h-64h-64h-64h-64h-64v64h64v64v64v64v64v64h64v64h64h64v64h64h64v-64h-64v-64h-64h-64v-64v-64v-64v-64v-64h64h64v64v64v64h-64v64h64h64v-64h64v-64v-64v-64h-64v-64h-64z" />
    <glyph glyph-name="afii10067" unicode="&#x432;" 
d="M320 0h-64h-64h-64h-64h-64v64h64v64v64v64v64h-64v64h64h64h64h64h64h64v-64h64v-64h-64v-64h64v-64v-64h-64v-64h-64zM256 64h64v64v64h-64v64h64v64h-64h-64v-64v-64v-64v-64h64z" />
    <glyph glyph-name="afii10068" unicode="&#x433;" horiz-adv-x="448" 
d="M320 256v64h-64h-64v-64v-64v-64v-64h64v-64h-64h-64h-64h-64v64h64v64v64v64v64h-64v64h64h64h64h64h64h64v-64v-64h-64z" />
    <glyph glyph-name="afii10069" unicode="&#x434;" horiz-adv-x="576" 
d="M448 -64h-64v64h-64h-64h-64h-64v-64h-64h-64v64v64h64v64v64h64v64v64v64h64h64h64h64h64h64v-64h-64v-64v-64v-64v-64h64v-64v-64h-64zM256 64h64v64v64v64v64h-64v-64v-64h-64v-64v-64h64z" />
    <glyph glyph-name="afii10070" unicode="&#x435;" horiz-adv-x="448" 
d="M256 64h64v-64h-64h-64h-64h-64v64h-64v64v64v64v64h64v64h64h64h64h64v-64h64v-64v-64h-64v-64h-64h-64v64h64v64v64h-64h-64v-64v-64v-64v-64h64h64z" />
    <glyph glyph-name="afii10072" unicode="&#x436;" horiz-adv-x="576" 
d="M448 0h-64v64v64v64h64v-64h64v-64v-64h-64zM256 0h-64v64v64v64h-64v-64v-64v-64h-64h-64v64v64h64v64h64v64h64v64v64h64h64v-64v-64h64v-64h-64v-64v-64v-64h-64zM384 256v64v64h64h64v-64v-64h-64h-64zM128 256h-64h-64v64v64h64h64v-64v-64z" />
    <glyph glyph-name="afii10073" unicode="&#x437;" horiz-adv-x="384" 
d="M192 0h-64h-64h-64v64h64h64h64v64v64h-64h-64h-64v64h64h64h64v64h-64h-64h-64v64h64h64h64h64v-64h64v-64h-64v-64h64v-64v-64h-64v-64h-64z" />
    <glyph glyph-name="afii10074" unicode="&#x438;" 
d="M384 0h-64v64v64v64h-64v-64h-64v-64h-64v-64h-64h-64v64v64v64v64v64v64h64h64v-64v-64v-64v-64h64v64h64v64h64v64v64h64h64v-64v-64v-64v-64v-64v-64h-64z" />
    <glyph glyph-name="afii10075" unicode="&#x439;" 
d="M384 0h-64v64v64v64h-64v-64h-64v-64h-64v-64h-64h-64v64v64v64v64v64v64h64h64v-64v-64v-64v-64h64v64h64v64h64v64v64h64h64v-64v-64v-64v-64v-64v-64h-64zM256 448h-64h-64v64h-64v64h64h64v-64h64v64h64h64v-64h-64v-64h-64z" />
    <glyph glyph-name="afii10076" unicode="&#x43a;" 
d="M384 0h-64v64h-64v64h-64v-64v-64h-64h-64h-64v64h64v64v64v64v64h-64v64h64h64h64v-64v-64v-64h64v64h64v64v64h64h64v-64v-64h-64v-64h-64v-64h64h64v-64v-64h-64z" />
    <glyph glyph-name="afii10077" unicode="&#x43b;" horiz-adv-x="576" 
d="M448 0h-64h-64v64v64v64v64v64h-64h-64v-64v-64v-64v-64h-64v-64h-64h-64v64h64v64v64v64v64v64h64h64h64h64h64h64v-64v-64v-64v-64v-64h64v-64h-64z" />
    <glyph glyph-name="afii10078" unicode="&#x43c;" 
d="M192 128v64v64h64v64h64v64h64h64v-64v-64v-64v-64v-64v-64h-64h-64v64v64v64h-64v-64h-64zM64 0h-64v64v64v64v64v64v64h64h64h64v-64v-64h-64v-64v-64v-64v-64h-64z" />
    <glyph glyph-name="afii10079" unicode="&#x43d;" 
d="M384 0h-64v64v64h-64h-64h-64v-64v-64h-64h-64v64v64v64v64v64v64h64h64v-64v-64v-64h64h64h64v64v64v64h64h64v-64v-64v-64v-64v-64v-64h-64z" />
    <glyph glyph-name="afii10080" unicode="&#x43e;" 
d="M320 0h-64h-64h-64h-64v64h-64v64v64v64v64h64v64h64h64h64h64h64v-64h64v-64v-64v-64v-64h-64v-64h-64zM256 64h64v64v64v64v64h-64h-64h-64v-64v-64v-64v-64h64h64z" />
    <glyph glyph-name="afii10081" unicode="&#x43f;" 
d="M384 0h-64v64v64v64v64v64h-64h-64h-64v-64v-64v-64v-64v-64h-64h-64v64v64v64v64v64v64h64h64h64h64h64h64h64v-64v-64v-64v-64v-64v-64h-64z" />
    <glyph glyph-name="afii10082" unicode="&#x440;" horiz-adv-x="576" 
d="M192 0h-64h-64h-64v64h64v64v64v64v64h-64v64h64h64h64h64h64h64h64v-64h64v-64v-64h-64v-64h-64h-64h-64v64h64h64v64v64h-64h-64h-64v-64v-64v-64v-64h64v-64h-64z" />
    <glyph glyph-name="afii10083" unicode="&#x441;" horiz-adv-x="384" 
d="M256 64h64v-64h-64h-64h-64h-64v64h-64v64v64v64v64h64v64h64h64h64h64v-64h-64h-64h-64v-64v-64v-64v-64h64h64z" />
    <glyph glyph-name="afii10084" unicode="&#x442;" horiz-adv-x="448" 
d="M192 0h-64v64v64v64v64v64h-64h-64v64h64h64h64h64h64h64v-64h-64h-64v-64v-64v-64v-64v-64h-64z" />
    <glyph glyph-name="afii10085" unicode="&#x443;" horiz-adv-x="448" 
d="M192 -64h-64h-64v64h64h64v64h64v64v64v64v64h-64v64h64h64h64v-64v-64v-64v-64v-64h-64v-64h-64v-64h-64zM192 64h-64h-64v64h-64v64v64v64v64h64h64v-64v-64v-64v-64h64v-64z" />
    <glyph glyph-name="afii10086" unicode="&#x444;" horiz-adv-x="576" 
d="M256 -128h-64v64v64h-64h-64v64h-64v64v64v64h64v64h64h64v64v64h64h64v-64v-64h64h64v-64h64v-64v-64v-64h-64v-64h-64h-64v-64v-64h-64zM384 64v64v64v64h-64v-64v-64v-64h64zM192 64v64v64v64h-64v-64v-64v-64h64z" />
    <glyph glyph-name="afii10087" unicode="&#x445;" 
d="M384 0h-64v64v64h-64v64h-64v-64h-64v-64v-64h-64h-64v64v64h64v64h64v64h-64v64v64h64h64v-64v-64h64v64v64h64h64v-64v-64h-64v-64h64v-64h64v-64v-64h-64z" />
    <glyph glyph-name="afii10088" unicode="&#x446;" 
d="M384 -64h-64v64h-64h-64h-64h-64v64h-64v64v64v64v64v64h64h64v-64v-64v-64v-64v-64h64h64v64v64v64v64v64h64h64v-64v-64v-64v-64v-64h64v-64v-64h-64z" />
    <glyph glyph-name="afii10089" unicode="&#x447;" horiz-adv-x="448" 
d="M320 0h-64v64h-64h-64h-64v64h-64v64v64v64v64h64h64v-64v-64v-64v-64h64h64v64v64v64v64h64h64v-64v-64v-64v-64v-64v-64h-64z" />
    <glyph glyph-name="afii10090" unicode="&#x448;" horiz-adv-x="576" 
d="M320 0h-64v64h-64v-64h-64h-64v64h-64v64v64v64v64v64h64h64v-64v-64v-64v-64v-64h64v64v64v64v64v64h64h64v-64v-64v-64v-64v-64h64v-64h-64zM384 64v64v64v64v64v64h64h64v-64v-64v-64v-64h-64v-64h-64z" />
    <glyph glyph-name="afii10091" unicode="&#x449;" horiz-adv-x="640" 
d="M512 -64h-64v64h-64h-64h-64v64h-64v-64h-64h-64v64h-64v64v64v64v64v64h64h64v-64v-64v-64v-64v-64h64v64v64v64v64v64h64h64v-64v-64v-64v-64v-64h64v64v64v64v64v64h64h64v-64v-64v-64v-64v-64h64v-64v-64h-64z" />
    <glyph glyph-name="afii10092" unicode="&#x44a;" horiz-adv-x="640" 
d="M0 256v64v64h64h64h64h64h64v-64h-64v-64v-64v-64v-64h64h64h64v64v64h-64h-64v64h64h64h64v-64h64v-64v-64h-64v-64h-64h-64h-64h-64h-64h-64v64v64v64v64v64h-64v-64h-64z" />
    <glyph glyph-name="afii10093" unicode="&#x44b;" horiz-adv-x="768" 
d="M640 0h-64h-64h-64v64h64v64v64v64v64h-64v64h64h64h64h64v-64h-64v-64v-64v-64v-64h64v-64h-64zM320 0h-64h-64h-64h-64h-64v64h64v64v64v64v64h-64v64h64h64h64h64v-64h-64v-64v-64v-64v-64h64h64v64v64h-64v64h64h64v-64h64v-64v-64h-64v-64h-64z" />
    <glyph glyph-name="afii10094" unicode="&#x44c;" horiz-adv-x="576" 
d="M384 0h-64h-64h-64h-64h-64h-64v64h64v64v64v64v64h-64v64h64h64h64h64v-64h-64v-64v-64v-64v-64h64h64h64v64v64h-64h-64v64h64h64h64v-64h64v-64v-64h-64v-64h-64z" />
    <glyph glyph-name="afii10095" unicode="&#x44d;" horiz-adv-x="448" 
d="M0 256v64v64h64h64h64h64v-64h64v-64h64v-64v-64h-64v-64h-64v-64h-64h-64h-64h-64v64v64h64v-64h64h64v64h64v64h-64h-64v64h64v64h-64h-64v-64h-64z" />
    <glyph glyph-name="afii10096" unicode="&#x44e;" horiz-adv-x="704" 
d="M512 0h-64h-64h-64v64h-64v64h-64v-64h64v-64h-64h-64h-64h-64v64h64v64v64v64v64h-64v64h64h64h64h64v-64h-64v-64v-64h64v64v64h64v64h64h64h64h64v-64h64v-64v-64v-64v-64h-64v-64h-64zM448 64h64v64v64v64v64h-64h-64v-64v-64v-64v-64h64z" />
    <glyph glyph-name="afii10097" unicode="&#x44f;" horiz-adv-x="448" 
d="M320 0h-64v64v64v64v64v64h-64h-64v-64v-64h64v-64h-64v-64v-64h-64h-64v64v64h64v64h-64v64v64h64v64h64h64h64h64h64v-64v-64v-64v-64v-64v-64h-64z" />
    <glyph glyph-name="afii10071" unicode="&#x451;" horiz-adv-x="448" 
d="M256 448v64h64v-64h-64zM64 448v64h64v-64h-64zM256 64h64v-64h-64h-64h-64h-64v64h-64v64v64v64v64h64v64h64h64h64h64v-64h64v-64v-64h-64v-64h-64h-64v64h64v64v64h-64h-64v-64v-64v-64v-64h64h64z" />
    <glyph glyph-name="Euro" unicode="&#x20ac;" 
d="M384 64h64v-64h-64h-64h-64h-64h-64v64h-64v64h-64v64h64v64h-64v64h64v64h64v64h64h64h64h64h64v-64h-64h-64h-64h-64v-64h64h64h64v-64h-64h-64h-64v-64h64h64h64v-64h-64h-64h-64v-64h64h64h64z" />
    <glyph glyph-name="uni3000" unicode="&#x3000;" horiz-adv-x="1024" 
 />
    <glyph glyph-name=".null" horiz-adv-x="0" 
 />
    <glyph glyph-name="nonmarkingreturn" horiz-adv-x="341" 
 />
  </font>
</defs>
</svg>
